<?xml version="1.0" encoding="UTF-8" standalone="no"?>
<!-- Created with Inkscape (http://www.inkscape.org/) -->

<svg
   xmlns:dc="http://purl.org/dc/elements/1.1/"
   xmlns:cc="http://creativecommons.org/ns#"
   xmlns:rdf="http://www.w3.org/1999/02/22-rdf-syntax-ns#"
   xmlns:svg="http://www.w3.org/2000/svg"
   xmlns="http://www.w3.org/2000/svg"
   xmlns:sodipodi="http://sodipodi.sourceforge.net/DTD/sodipodi-0.dtd"
   xmlns:inkscape="http://www.inkscape.org/namespaces/inkscape"
   width="488.63779"
   height="330.73883"
   id="svg2"
   version="1.1"
   inkscape:version="0.48.5 r10040"
   sodipodi:docname="visitrapperswil.svg">
  <defs
     id="defs4" />
  <sodipodi:namedview
     id="base"
     pagecolor="#000000"
     bordercolor="#666666"
     borderopacity="1.0"
     inkscape:pageopacity="0.69019608"
     inkscape:pageshadow="2"
     inkscape:zoom="1"
     inkscape:cx="275.22522"
     inkscape:cy="246.72821"
     inkscape:document-units="px"
     inkscape:current-layer="layer1"
     showgrid="false"
     showguides="true"
     inkscape:guide-bbox="true"
     inkscape:window-width="1920"
     inkscape:window-height="1065"
     inkscape:window-x="1920"
     inkscape:window-y="15"
     inkscape:window-maximized="0"
     fit-margin-top="0"
     fit-margin-left="0"
     fit-margin-right="0"
     fit-margin-bottom="0">
    <sodipodi:guide
       orientation="0,1"
       position="323.63726,1.0303529"
       id="guide3013" />
  </sodipodi:namedview>
  <metadata
     id="metadata7">
    <rdf:RDF>
      <cc:Work
         rdf:about="">
        <dc:format>image/svg+xml</dc:format>
        <dc:type
           rdf:resource="http://purl.org/dc/dcmitype/StillImage" />
        <dc:title></dc:title>
      </cc:Work>
    </rdf:RDF>
  </metadata>
  <g
     inkscape:label="Layer 1"
     inkscape:groupmode="layer"
     id="layer1"
     transform="translate(-36.929145,-614.79432)">
    <path
       style="fill:#1f1f1f;stroke:#ffffff;stroke-width:2;stroke-miterlimit:4;stroke-opacity:0.80000000999999998;stroke-dasharray:none;fill-opacity:0.80000001"
       d="m 40.400387,827.2915 c -0.205564,-103.24294 0.0354,-115.87875 -0.51059,-116.71196 -0.33672,-0.5139 -0.85904,-0.93437 -1.16071,-0.93437 -0.58555,0 -1.10784,-2.71657 -0.58447,-3.04004 0.1636,-0.10111 7.65443,-11.55368 16.646299,-25.45016 12.65018,-19.55022 16.452351,-25.15145 16.806361,-24.75855 0.25163,0.27928 5.37617,11.78157 11.38786,25.56064 6.0117,13.77908 11.34245,25.5426 11.84611,26.14117 1.19155,1.41608 0.92952,2.96793 -0.63802,3.77854 -1.12242,0.58042 -1.15302,0.68 -1.13537,3.69451 0.0485,8.28721 1.11201,40.95769 1.34555,41.33556 0.14646,0.23698 0.52685,0.33088 0.84532,0.20867 0.31846,-0.12221 7.938073,-4.10663 16.932443,-8.85428 l 16.35342,-8.63208 85.2278,-0.20295 85.22781,-0.20296 29.63304,30.33157 c 16.29818,16.68236 29.7793,30.33156 29.95805,30.33156 0.4667,0 1.8444,-1.53302 18.20206,-20.25414 8.09513,-9.26476 14.87378,-16.90164 15.06367,-16.97085 0.18988,-0.0692 7.60188,8.0525 16.4711,18.04824 8.86922,9.99574 16.36341,18.23118 16.65375,18.30099 0.29034,0.0698 0.61741,-0.29116 0.72684,-0.80215 0.33871,-1.58178 0.86048,-81.50343 0.53676,-82.21925 -0.16782,-0.37109 -0.6468,-0.78315 -1.06439,-0.91569 -0.4176,-0.13254 -0.8521,-0.59597 -0.96556,-1.02984 -0.14008,-0.53567 -0.5496,-0.78886 -1.27593,-0.78886 -1.74382,0 -1.09764,-0.95071 2.79677,-4.11478 4.19991,-3.41228 8.26322,-8.75287 10.24811,-13.46954 0.68168,-1.61986 2.74893,-6.13192 4.59391,-10.0268 1.84497,-3.89489 5.59952,-12.76681 8.3435,-19.71538 4.61265,-11.68081 16.37168,-39.79061 19.67202,-47.02569 0.77984,-1.70957 1.57337,-3.10831 1.76339,-3.10831 0.19003,0 6.18157,12.58865 13.31451,27.97477 9.11296,19.65711 15.70698,33.22176 22.17768,45.62194 l 9.20869,17.64717 5.00049,4.58102 c 3.62144,3.31762 4.84736,4.66675 4.44512,4.89185 -0.3055,0.17095 -1.226,0.92504 -2.04559,1.67576 l -1.49018,1.36495 -0.035,64.26875 c 0,52.72889 -0.011,139.09198 -0.011,160.68227 -160.09576,0.0683 -320.3294,0 -480.278197,0 z"
       id="path2996"
       inkscape:connector-curvature="0"
       sodipodi:nodetypes="scscsssssscsscccssscsccsssssssssssscscsccccs" />
    <path
       style="fill:#ffffff;fill-opacity:0.80000001"
       d="m 271.25304,933.95804 c -0.38737,-0.43999 -0.5059,-4.51079 -0.5059,-17.37401 0,-16.1948 -0.0281,-16.81444 -0.78288,-17.21834 -0.43057,-0.23044 -1.25015,-0.41897 -1.8213,-0.41897 l -1.03846,0 0,-4.04736 0,-4.04735 5.46393,0 c 4.72217,0 5.56009,0.0985 6.17222,0.72622 0.68058,0.69779 0.7869,0.68591 2.7168,-0.30355 1.83662,-0.94164 2.44272,-1.02978 7.08286,-1.02978 5.69628,0 7.13947,0.47312 9.91771,3.25137 3.04632,3.04632 4.25157,6.89658 4.25842,13.60371 0.009,7.47858 -1.99059,12.1623 -6.37509,14.94286 -2.58539,1.63961 -4.11183,1.9926 -8.62792,1.99522 -3.2766,0.002 -4.17048,-0.14597 -5.76747,-0.95452 l -1.8899,-0.9568 0,5.64018 c 0,4.34848 -0.13235,5.77255 -0.57821,6.21834 -0.81069,0.81069 -7.50658,0.78852 -8.22481,-0.0273 z m 18.14362,-19.33746 c 5.0393,-3.39597 5.0393,-11.76232 0,-15.15831 -4.08969,-2.75603 -9.04598,1.36947 -9.10545,7.57916 -0.0596,6.21364 4.94741,10.38127 9.10545,7.57915 z m 18.68733,19.33746 c -0.3874,-0.43999 -0.50593,-4.51079 -0.50593,-17.37401 0,-16.1948 -0.0281,-16.81444 -0.78286,-17.21834 -0.43057,-0.23044 -1.25017,-0.41897 -1.82132,-0.41897 l -1.03843,0 0,-4.04736 0,-4.04735 5.46393,0 c 4.72215,0 5.56008,0.0985 6.17221,0.72622 0.68058,0.69779 0.78691,0.68591 2.71678,-0.30355 1.83662,-0.94164 2.44275,-1.02978 7.08288,-1.02978 5.69629,0 7.13947,0.47312 9.91771,3.25137 3.04633,3.04632 4.25157,6.89658 4.2584,13.60371 0.009,7.47858 -1.9906,12.1623 -6.37506,14.94286 -2.5854,1.63961 -4.11185,1.9926 -8.62792,1.99522 -3.27663,0.002 -4.17049,-0.14597 -5.76748,-0.95452 l -1.88991,-0.9568 0,5.64018 c 0,4.34848 -0.13235,5.77255 -0.5782,6.21834 -0.81069,0.81069 -7.50658,0.78852 -8.2248,-0.0273 z m 18.14362,-19.33746 c 5.03928,-3.39597 5.03928,-11.76232 0,-15.15831 -4.0897,-2.75603 -9.04598,1.36947 -9.10545,7.57916 -0.0596,6.21364 4.9474,10.38127 9.10545,7.57915 z m -173.57685,9.40174 c -1.39939,-0.18746 -3.51576,-0.78563 -4.70304,-1.32918 -2.69192,-1.23241 -5.50176,-3.71811 -5.50176,-4.86708 0,-0.47219 0.77404,-1.99477 1.72012,-3.38353 2.13535,-3.13456 2.98607,-3.26346 6.06282,-0.91867 3.5593,2.71252 6.85148,3.28356 8.37148,1.45207 0.84262,-1.01528 0.0885,-1.57656 -5.26987,-3.92273 -7.70129,-3.37194 -10.05731,-6.01838 -10.05731,-11.29701 0,-3.19062 0.89505,-5.3672 2.9485,-7.17014 2.09042,-1.83543 4.87024,-2.54351 9.98527,-2.54351 5.3157,0 7.97039,0.71215 9.91913,2.66087 1.40461,1.4046 1.41345,1.43618 1.41345,5.04259 l 0,3.62914 -4.24972,0 c -4.13547,0 -4.24989,-0.0245 -4.25591,-0.91067 -0.009,-1.2518 -0.42391,-1.79827 -1.75025,-2.30256 -1.36078,-0.51736 -2.80251,-0.21519 -3.69881,0.77523 -0.61322,0.67758 -0.58573,0.78394 0.4038,1.56229 0.584,0.45938 2.76367,1.49465 4.84374,2.30061 4.62095,1.79046 7.02051,3.27158 8.55291,5.27927 1.05517,1.38246 1.17924,1.88154 1.30441,5.24746 0.1166,3.1363 0.006,3.97638 -0.69656,5.35617 -2.19465,4.30187 -8.00187,6.32288 -15.3424,5.33938 z m 89.87845,0.0212 c -2.77035,-0.41489 -5.52974,-2.07122 -6.90196,-4.14291 -0.97872,-1.47758 -1.11974,-2.11797 -1.24308,-5.64478 -0.12809,-3.66246 -0.0576,-4.11705 0.88703,-5.72915 2.01234,-3.43382 6.76062,-5.4839 13.51902,-5.83683 4.01825,-0.20978 4.14855,-0.2464 4.14855,-1.16397 0,-0.52103 -0.53146,-1.54214 -1.18102,-2.2691 -1.01438,-1.13529 -1.44769,-1.32179 -3.07127,-1.32179 -1.49825,0 -2.05074,0.19809 -2.66398,0.95551 -0.42554,0.52552 -0.77372,1.39064 -0.77372,1.92249 0,0.9609 -0.0281,0.96701 -4.4521,0.96701 l -4.45209,0 0,-3.27791 c 0,-4.43158 0.62894,-5.68391 3.58311,-7.13465 2.1995,-1.08015 2.52181,-1.12242 8.55898,-1.12242 5.92858,0 6.39812,0.0585 8.54272,1.06412 4.65299,2.18186 5.623,4.77191 5.623,15.01386 0,4.22192 0.17491,7.57436 0.41901,8.0304 0.29045,0.54276 0.84908,0.78287 1.82129,0.78287 l 1.40234,0 0,4.04735 0,4.04736 -5.27997,0 c -5.03043,0 -5.32575,-0.0458 -6.24922,-0.96927 -0.94082,-0.94084 -0.9892,-0.94718 -1.6501,-0.2169 -1.50281,1.66059 -6.51969,2.60775 -10.58654,1.99871 z m 5.97649,-8.0978 c 0.62251,0 3.23628,-2.5023 3.84662,-3.6826 1.14338,-2.211 0.87793,-2.52266 -1.95507,-2.29524 -4.74014,0.3805 -7.55707,2.76535 -5.70234,4.82772 0.89634,0.99673 2.16348,1.5738 2.91421,1.3272 0.29646,-0.0975 0.69991,-0.17704 0.89658,-0.17704 z m 161.15215,8.07671 c -1.39939,-0.18745 -3.51575,-0.78562 -4.70303,-1.32917 -2.69193,-1.23241 -5.50179,-3.71811 -5.50179,-4.86708 0,-0.47219 0.77407,-1.99478 1.72015,-3.38353 2.13535,-3.13456 2.98606,-3.26346 6.0628,-0.91867 3.55932,2.71252 6.85148,3.28356 8.37149,1.45207 0.84263,-1.01529 0.0885,-1.57656 -5.26986,-3.92273 -7.7013,-3.37194 -10.05731,-6.01838 -10.05731,-11.29701 0,-3.19063 0.89505,-5.36721 2.9485,-7.17014 2.09041,-1.83543 4.87023,-2.54352 9.98525,-2.54352 5.31571,0 7.9704,0.71216 9.91913,2.66088 1.40463,1.4046 1.41347,1.43618 1.41347,5.04258 l 0,3.62915 -4.24972,0 c -4.13546,0 -4.2499,-0.0245 -4.25591,-0.91067 -0.009,-1.25181 -0.42391,-1.79827 -1.75028,-2.30257 -1.36075,-0.51736 -2.80247,-0.21518 -3.69879,0.77524 -0.61321,0.67758 -0.58571,0.78394 0.40381,1.56229 0.58397,0.45937 2.76367,1.49465 4.84374,2.30061 4.62095,1.79046 7.0205,3.27158 8.55289,5.27926 1.05519,1.38246 1.17925,1.88155 1.30444,5.24747 0.11659,3.1363 0.006,3.97637 -0.69656,5.35616 -2.19466,4.30188 -8.00188,6.32288 -15.34242,5.33938 z M 202.0787,923.66255 c -5.05083,-0.61139 -8.65168,-3.3744 -9.80322,-7.52224 -0.25664,-0.92448 -0.44822,-5.01794 -0.44953,-9.60468 l -0.002,-7.99354 -2.0237,0 -2.02368,0 0,-3.84498 0,-3.84498 2.02368,0 2.0237,0 0,-4.24973 0,-4.24972 4.65443,0 4.65447,0 0,4.24972 0,4.24973 3.64264,0 3.64261,0 0,3.84498 0,3.84498 -3.69098,0 -3.69098,0 0.16448,6.46621 c 0.14532,5.70946 0.26089,6.5976 0.98777,7.5888 1.08006,1.47281 3.2265,2.53775 5.11661,2.53853 l 1.51775,8.1e-4 0,4.24972 c 0,3.77584 -0.079,4.25023 -0.7083,4.2542 -0.38954,0.002 -1.34575,0.0764 -2.12486,0.16426 -0.77912,0.0879 -2.53894,0.024 -3.91073,-0.14193 z m 150.54078,-0.1898 c -7.82786,-2.53543 -12.01246,-10.17844 -10.76129,-19.65509 0.79767,-6.04185 3.6449,-10.19514 8.57328,-12.50601 1.94205,-0.9106 2.93078,-1.08618 6.76245,-1.20095 5.1658,-0.15469 7.00927,0.23568 9.73902,2.06241 2.0464,1.36941 4.26279,4.5403 5.0138,7.17299 0.56244,1.97177 0.96181,7.37556 0.63989,8.65827 l -0.26629,1.06095 -10.31987,0 -10.31987,0 1.02454,2.02181 c 2.06987,4.08467 6.24262,5.45427 10.57489,3.47091 1.2956,-0.59315 2.66319,-1.35679 3.0391,-1.69697 0.37591,-0.34021 1.19683,-0.55937 1.82424,-0.48703 0.92407,0.10666 1.4306,0.63092 2.66658,2.76051 0.8392,1.44593 1.52581,3.00783 1.52581,3.47088 0,1.18898 -1.37887,2.34173 -4.65445,3.89119 -2.70385,1.279 -3.07332,1.34446 -8.09471,1.43437 -3.57859,0.064 -5.80712,-0.0825 -6.96712,-0.45824 z m 9.44437,-22.40097 c -0.7197,-1.38339 -2.20083,-2.75767 -3.34535,-3.10394 -1.73705,-0.52557 -6.21478,2.24351 -6.21478,3.84329 0,0.20851 2.24054,0.37367 5.06957,0.37367 l 5.06961,0 -0.57905,-1.11302 z M 55.43049,922.537 c 0.0016,-0.39734 0.364523,-2.81694 0.806773,-5.37691 0.44227,-2.55996 0.805304,-4.69999 0.806794,-4.75562 0.0016,-0.0557 -1.103103,-0.10127 -2.454639,-0.10127 -3.345606,0 -3.54806,-0.27551 -3.04849,-4.14853 l 0.404611,-3.1367 3.129003,0 3.129002,0 0.453399,-2.32722 c 0.249371,-1.27999 0.549934,-2.82811 0.667959,-3.44026 l 0.214561,-1.11304 -3.330031,0 -3.330031,0 0.251285,-3.25862 c 0.138303,-1.79223 0.358077,-3.43142 0.488613,-3.64262 0.13043,-0.21128 1.75521,-0.38398 3.610403,-0.38398 2.328975,0 3.430885,-0.15661 3.55989,-0.50592 0.102765,-0.27826 0.524699,-2.5549 0.937629,-5.05919 0.504698,-3.06088 0.921947,-4.5533 1.273022,-4.5533 0.287245,0 0.522274,-0.18213 0.522274,-0.40473 0,-0.23418 1.2913,-0.40474 3.064426,-0.40474 4.418555,0 4.537706,0.17617 3.650569,5.39812 -0.384332,2.26226 -0.792408,4.44018 -0.906856,4.83985 -0.18873,0.65922 0.06723,0.7156 2.757242,0.60711 l 2.965342,-0.11958 0.828348,-4.70012 c 0.507351,-2.87887 1.085104,-4.95688 1.490961,-5.36273 0.843581,-0.8436 6.560193,-0.95175 7.372456,-0.13959 0.427694,0.4277 0.361375,1.42452 -0.363551,5.46391 l -0.886684,4.9408 3.429547,0 3.429515,0 -0.251532,2.9758 c -0.378827,4.48149 -0.207459,4.30942 -4.29267,4.30942 l -3.529328,0 -0.599935,3.44028 -0.599936,3.44025 3.42122,0 3.42123,0 -0.26265,2.73196 c -0.461166,4.79672 -0.230642,4.55327 -4.31134,4.55327 l -3.553869,0 -0.433102,2.52959 c -0.238216,1.39129 -0.647876,3.85006 -0.910353,5.46394 l -0.477208,2.93434 -4.190401,0 c -3.180148,0 -4.190422,-0.12766 -4.190422,-0.52904 0,-0.29097 0.364273,-2.51169 0.809473,-4.9349 0.445212,-2.42323 0.809473,-4.64393 0.809473,-4.93489 0,-0.38485 -0.767188,-0.52904 -2.814816,-0.52904 l -2.814801,0 -0.23454,1.31538 c -0.128941,0.72347 -0.555678,3.13671 -0.948182,5.36277 l -0.713642,4.04735 -4.129356,0.11532 c -3.737621,0.1045 -4.129102,0.0469 -4.126655,-0.6071 z m 17.526995,-19.23909 c 0.129795,-0.94608 0.360028,-2.49419 0.511488,-3.44027 l 0.275394,-1.72012 -2.856189,0 -2.856184,0 -0.453399,2.32722 c -0.249349,1.27999 -0.549934,2.82811 -0.667939,3.44028 l -0.214582,1.11302 3.012659,0 3.012659,0 0.236093,-1.72013 z m 24.756015,8.15293 c -4.059863,-10.82252 -4.520113,-11.83393 -5.548044,-12.19228 l -1.120936,-0.39074 0,-4.00778 0,-4.00776 4.470492,0 c 4.101727,0 4.544138,0.0751 5.363208,0.91065 0.53266,0.54334 2.11276,4.37579 3.9174,9.50146 1.66355,4.72493 3.13803,8.45862 3.27663,8.29708 0.13852,-0.1615 1.57926,-4.07899 3.20154,-8.70544 2.23254,-6.36692 3.19555,-8.60521 3.96154,-9.20772 0.85094,-0.66936 1.64731,-0.79603 5.00475,-0.79603 l 3.99278,0 0,4.02527 c 0,3.93084 -0.0247,4.03766 -1.05336,4.55329 -0.90063,0.45144 -1.68412,2.20044 -5.40396,12.06295 l -4.3506,11.53498 -5.64215,0.1117 -5.64216,0.11171 -4.42713,-11.80149 z m 31.78092,10.97083 c -0.76864,-0.76865 -0.80947,-1.34911 -0.80947,-11.50606 0,-11.89798 -0.0149,-11.96862 -2.6597,-11.96862 l -1.38766,0 0,-4.04736 0,-4.04735 5.83929,0 c 8.09094,0 7.51699,-0.97144 7.51699,12.72281 0,7.69699 0.13277,10.72265 0.48567,11.07564 0.26713,0.26713 1.08672,0.4857 1.82132,0.4857 l 1.33563,0 0,4.04735 0,4.04736 -5.66632,0 c -5.12664,0 -5.74339,-0.077 -6.47575,-0.80947 z m 45.7351,0 c -0.76862,-0.76865 -0.80947,-1.34911 -0.80947,-11.50606 0,-11.89798 -0.0149,-11.96862 -2.65969,-11.96862 l -1.38766,0 0,-4.04736 0,-4.04735 5.83928,0 c 8.09095,0 7.51699,-0.97144 7.51699,12.72281 0,7.69699 0.13277,10.72265 0.4857,11.07564 0.26712,0.26713 1.0867,0.4857 1.82129,0.4857 l 1.33565,0 0,4.04735 0,4.04736 -5.6663,0 c -5.12665,0 -5.7434,-0.077 -6.47579,-0.80947 z m 38.85462,-10.91363 c 0,-11.17604 -0.0366,-11.74264 -0.78286,-12.14207 -0.43057,-0.23044 -1.25015,-0.41898 -1.82129,-0.41898 l -1.03847,0 0,-4.04736 0,-4.04735 5.48234,0 c 5.28108,0 5.51879,0.0364 6.47576,0.99345 0.5464,0.5464 0.99344,1.26664 0.99344,1.60054 0,0.4409 0.26212,0.34499 0.9575,-0.35037 1.81958,-1.8196 4.04799,-2.64836 7.1211,-2.64836 l 2.84927,0 0,4.65447 0,4.65446 -1.74184,0 c -2.18944,0 -5.47913,1.59521 -6.70276,3.25026 -1.81019,2.44839 -2.15014,4.22541 -2.37859,12.43324 l -0.21683,7.79117 -4.59838,0 -4.59839,0 0,-11.7231 z m 164.32265,0 c 0,-11.17604 -0.0366,-11.74264 -0.78286,-12.14207 -0.43057,-0.23044 -1.25017,-0.41898 -1.82132,-0.41898 l -1.03844,0 0,-4.04736 0,-4.04735 5.48232,0 c 5.2811,0 5.51881,0.0364 6.47577,0.99345 0.54641,0.5464 0.99345,1.26664 0.99345,1.60054 0,0.4409 0.26211,0.34499 0.95748,-0.35037 1.81959,-1.8196 4.04801,-2.64836 7.1211,-2.64836 l 2.84929,0 0,4.65447 0,4.65446 -1.74185,0 c -2.18944,0 -5.47913,1.59521 -6.70274,3.25026 -1.81019,2.44839 -2.15014,4.22541 -2.3786,12.43324 l -0.21686,7.79117 -4.59837,0 -4.59837,0 0,-11.7231 z m 57.77133,11.41953 c -0.0845,-0.16702 -1.77565,-5.4726 -3.75815,-11.79032 -3.39973,-10.83417 -3.6683,-11.50902 -4.72708,-11.87812 l -1.12257,-0.39131 0,-4.02023 0,-4.02022 4.91525,0.11362 c 4.71462,0.10894 4.94545,0.1549 5.65456,1.12549 0.40661,0.55651 1.69573,4.68984 2.86468,9.18521 1.16897,4.49535 2.19754,8.10124 2.28572,8.01309 0.0881,-0.0881 1.2949,-4.22153 2.68164,-9.18524 l 2.52135,-9.02491 4.43341,-0.11362 4.43343,-0.11362 2.59702,9.30046 c 1.42835,5.11526 2.65648,9.24102 2.72914,9.16838 0.0725,-0.0726 1.11688,-3.93351 2.32046,-8.57969 1.68072,-6.48775 2.39116,-8.61189 3.06224,-9.15587 0.71797,-0.58194 1.696,-0.70828 5.48345,-0.70828 l 4.60961,0 0,4.03965 c 0,3.97019 -0.017,4.04399 -1.01072,4.29331 -0.91662,0.23007 -1.258,1.0309 -3.66896,8.60834 -1.46207,4.59507 -3.16245,9.90279 -3.77868,11.79492 l -1.1204,3.44026 -5.38485,0 -5.38484,0 -2.29619,-7.68999 c -1.2629,-4.22947 -2.3763,-7.91822 -2.47422,-8.1972 -0.0978,-0.27899 -1.26355,3.22703 -2.59036,7.79117 l -2.41237,8.2984 -5.35446,0 c -2.94497,0 -5.42361,-0.13661 -5.50811,-0.30357 z m 46.24572,-0.5059 c -0.76864,-0.76865 -0.80947,-1.34911 -0.80947,-11.50606 0,-11.89798 -0.0149,-11.96862 -2.65969,-11.96862 l -1.38767,0 0,-4.04736 0,-4.04735 5.83928,0 c 8.09096,0 7.517,-0.97144 7.517,12.72281 0,7.69699 0.13277,10.72265 0.48567,11.07564 0.26714,0.26713 1.08672,0.4857 1.82132,0.4857 l 1.33562,0 0,4.04735 0,4.04736 -5.6663,0 c -5.12667,0 -5.74339,-0.077 -6.47576,-0.80947 z m 17.58215,0.2354 c -0.75037,-0.54831 -0.79469,-1.33881 -0.98799,-17.62112 -0.22242,-18.7344 -0.0803,-17.8076 -2.73197,-17.82009 l -1.31539,-0.006 0,-3.06442 c 0,-2.11618 0.17894,-3.24336 0.57822,-3.64262 0.43614,-0.43616 1.75845,-0.57819 5.38298,-0.57819 2.64264,0 4.97778,0.16447 5.18926,0.36543 0.21149,0.20107 0.74877,0.43111 1.19398,0.51132 0.79019,0.14234 0.81428,0.54481 1.01183,16.8931 0.19448,16.09261 0.23334,16.76473 0.99477,17.19585 1.65302,0.93595 1.83838,1.36888 1.83838,4.29364 0,1.96586 -0.18512,3.07599 -0.57822,3.46918 -0.81975,0.81975 -9.45496,0.82313 -10.57585,0.004 z m -371.32104,-38.1071 c 0,-4.42217 0.1868,-4.62556 4.24972,-4.62556 4.06286,0 4.24972,0.20341 4.24972,4.62556 l 0,3.46918 -4.24972,0 -4.24972,0 0,-3.46918 z m 45.7351,0 c 0,-4.42217 0.18682,-4.62556 4.24973,-4.62556 4.06288,0 4.24974,0.20341 4.24974,4.62556 l 0,3.46918 -4.24974,0 -4.24973,0 0,-3.46918 z m 307.19432,0 c 0,-4.42217 0.18681,-4.62556 4.24973,-4.62556 4.06285,0 4.24971,0.20341 4.24971,4.62556 l 0,3.46918 -4.24971,0 -4.24973,0 0,-3.46918 z"
       id="path3011"
       inkscape:connector-curvature="0" />
  </g>
  <g
     inkscape:groupmode="layer"
     id="layer2"
     inkscape:label="Repost"
     transform="translate(-36.929145,-614.79432)" />
</svg>
